<svg id="icons" xmlns="http://www.w3.org/2000/svg" viewBox="0 0 64 64"><title>cloud-sun-rain</title><g id="cloud-sun-rain"><circle cx="44" cy="15" r="13" fill="#fcc74f" stroke="#f9b623" stroke-miterlimit="10" stroke-width="2"/><path d="M57.09,28.9a11.48,11.48,0,0,0,.08-1.31A11,11,0,0,0,43.11,17a16.25,16.25,0,0,0-32.33,2.22s0,.07,0,.11A9.88,9.88,0,0,0,11.91,39H56.5v0l.43,0a5,5,0,0,0,.16-10.1Z" fill="#ebebeb" stroke="#dedede" stroke-linejoin="round" stroke-width="2"/><path d="M15,19v-.1A12,12,0,0,1,27,7V8.63A10.32,10.32,0,0,0,16.63,18.88V19Z" fill="#fff"/><line x1="40" y1="42" x2="38" y2="46" fill="none" stroke="#4dd0e1" stroke-linecap="round" stroke-miterlimit="10" stroke-width="2"/><line x1="26" y1="42" x2="24" y2="46" fill="none" stroke="#4dd0e1" stroke-linecap="round" stroke-miterlimit="10" stroke-width="2"/><line x1="33" y1="42" x2="31" y2="46" fill="none" stroke="#4dd0e1" stroke-linecap="round" stroke-miterlimit="10" stroke-width="2"/><line x1="36" y1="50" x2="34" y2="54" fill="none" stroke="#4dd0e1" stroke-linecap="round" stroke-miterlimit="10" stroke-width="2"/><line x1="22" y1="50" x2="20" y2="54" fill="none" stroke="#4dd0e1" stroke-linecap="round" stroke-miterlimit="10" stroke-width="2"/><line x1="29" y1="50" x2="27" y2="54" fill="none" stroke="#4dd0e1" stroke-linecap="round" stroke-miterlimit="10" stroke-width="2"/><line x1="25" y1="58" x2="23" y2="62" fill="none" stroke="#4dd0e1" stroke-linecap="round" stroke-miterlimit="10" stroke-width="2"/></g></svg>