<svg xmlns="http://www.w3.org/2000/svg" viewBox="0 0 90 90"><defs><style>.cls-1{fill:#ffd900;}.cls-2{fill:#f0f0f0;}</style></defs><title>sun_1</title><g id="cloud-sun"><path class="cls-1" d="M73.36,36.86a11.71,11.71,0,1,1-13.73-9.31A11.78,11.78,0,0,1,73.36,36.86Z"/><path class="cls-1" d="M58.69,15.84l-2.56.5a.39.39,0,0,0-.25.17.39.39,0,0,0-.06.29l1.46,7.54a.39.39,0,0,0,.38.32h.07l2.55-.5a.39.39,0,0,0,.31-.46l-1.46-7.54A.39.39,0,0,0,58.69,15.84Z"/><path class="cls-1" d="M50.56,28.63a.39.39,0,0,0,.55,0l2-1.72a.4.4,0,0,0,0-.55l-5-5.79a.39.39,0,0,0-.27-.13.36.36,0,0,0-.28.1l-2,1.72a.39.39,0,0,0,0,.55Z"/><path class="cls-1" d="M39.66,33.24l7.21,2.49.13,0a.39.39,0,0,0,.37-.27L48.22,33a.39.39,0,0,0-.24-.5L40.76,30a.39.39,0,0,0-.3,0,.39.39,0,0,0-.2.23l-.85,2.48A.39.39,0,0,0,39.66,33.24Z"/><path class="cls-1" d="M47.51,43.28,47,40.71a.39.39,0,0,0-.46-.31l-7.49,1.47a.39.39,0,0,0-.31.46l.5,2.57a.39.39,0,0,0,.16.25.38.38,0,0,0,.22.07h.07l7.49-1.47A.39.39,0,0,0,47.51,43.28Z"/><path class="cls-1" d="M49.79,48a.38.38,0,0,0-.27-.13.36.36,0,0,0-.28.1l-5.75,5a.39.39,0,0,0,0,.55l1.71,2a.38.38,0,0,0,.27.13h0a.39.39,0,0,0,.26-.1l5.75-5a.39.39,0,0,0,0-.55Z"/><path class="cls-1" d="M58.27,53.73l-2.46-.85a.39.39,0,0,0-.5.24l-2.48,7.27a.39.39,0,0,0,.24.5l2.46.85.13,0a.39.39,0,0,0,.17,0,.39.39,0,0,0,.2-.23l2.48-7.27A.39.39,0,0,0,58.27,53.73Z"/><path class="cls-1" d="M66.3,53.64a.39.39,0,0,0-.29-.06l-2.56.51a.39.39,0,0,0-.31.46l1.46,7.54a.39.39,0,0,0,.38.32h.07l2.56-.5a.39.39,0,0,0,.25-.17.39.39,0,0,0,.06-.29l-1.46-7.54A.39.39,0,0,0,66.3,53.64Z"/><path class="cls-1" d="M73.19,49.61a.39.39,0,0,0-.27-.13.35.35,0,0,0-.28.1l-2,1.72a.39.39,0,0,0,0,.55l5,5.8a.39.39,0,0,0,.27.13h0a.38.38,0,0,0,.26-.1l2-1.72a.39.39,0,0,0,0-.55Z"/><path class="cls-1" d="M84.09,45l-7.21-2.5a.39.39,0,0,0-.5.24l-.85,2.48a.39.39,0,0,0,.24.5L83,48.22l.13,0a.39.39,0,0,0,.37-.27l.84-2.48A.39.39,0,0,0,84.09,45Z"/><path class="cls-1" d="M84.49,33.33a.39.39,0,0,0-.16-.25A.39.39,0,0,0,84,33L76.55,34.5a.39.39,0,0,0-.31.46l.5,2.58a.39.39,0,0,0,.16.25.38.38,0,0,0,.22.07h.07l7.49-1.47a.39.39,0,0,0,.31-.46Z"/><path class="cls-1" d="M74,30.26a.38.38,0,0,0,.27.13h0a.39.39,0,0,0,.26-.1l5.75-5A.39.39,0,0,0,80.4,25a.39.39,0,0,0-.09-.28l-1.71-2a.39.39,0,0,0-.55,0l-5.75,5a.39.39,0,0,0,0,.55Z"/><path class="cls-1" d="M70.9,17.55a.39.39,0,0,0-.22-.2l-2.46-.85a.39.39,0,0,0-.5.24L65.24,24a.39.39,0,0,0,.24.5l2.46.85.13,0a.39.39,0,0,0,.17,0,.39.39,0,0,0,.2-.23l2.48-7.27A.39.39,0,0,0,70.9,17.55Z"/><path class="cls-2" d="M57.08,45.69c.05-.57.09-1.14.09-1.72a17.84,17.84,0,0,0-34.67-6A18.13,18.13,0,0,0,23,74.17H56.55a14.24,14.24,0,0,0,.53-28.47Z"/></g></svg>